<svg width="60" height="25" viewBox="0 0 60 25" fill="none" xmlns="http://www.w3.org/2000/svg">
<rect width="60" height="25" rx="6" fill="#06030A"/>
<path d="M15.4034 17V16.233L18.2841 13.0795C18.6222 12.7102 18.9006 12.3892 19.1193 12.1165C19.3381 11.8409 19.5 11.5824 19.6051 11.3409C19.7131 11.0966 19.767 10.8409 19.767 10.5739C19.767 10.267 19.6932 10.0014 19.5455 9.77699C19.4006 9.55256 19.2017 9.37926 18.9489 9.2571C18.696 9.13494 18.4119 9.07386 18.0966 9.07386C17.7614 9.07386 17.4688 9.14347 17.2188 9.28267C16.9716 9.41903 16.7798 9.6108 16.6435 9.85795C16.5099 10.1051 16.4432 10.3949 16.4432 10.7273H15.4375C15.4375 10.2159 15.5554 9.76705 15.7912 9.38068C16.027 8.99432 16.348 8.69318 16.7543 8.47727C17.1634 8.26136 17.6222 8.15341 18.1307 8.15341C18.642 8.15341 19.0952 8.26136 19.4901 8.47727C19.8849 8.69318 20.1946 8.98437 20.419 9.35085C20.6435 9.71733 20.7557 10.125 20.7557 10.5739C20.7557 10.8949 20.6974 11.2088 20.581 11.5156C20.4673 11.8196 20.2685 12.1591 19.9844 12.5341C19.7031 12.9062 19.3125 13.3608 18.8125 13.8977L16.8523 15.9943V16.0625H20.9091V17H15.4034ZM25.7372 8.27273V17H24.6804V9.38068H24.6293L22.4986 10.7955V9.72159L24.6804 8.27273H25.7372ZM28.7585 8.27273L31.3494 15.6193H31.4517L34.0426 8.27273H35.1506L31.946 17H30.8551L27.6506 8.27273H28.7585ZM36.3736 17V10.4545H37.3793V17H36.3736ZM36.8849 9.36364C36.6889 9.36364 36.5199 9.29688 36.3778 9.16335C36.2386 9.02983 36.169 8.86932 36.169 8.68182C36.169 8.49432 36.2386 8.33381 36.3778 8.20028C36.5199 8.06676 36.6889 8 36.8849 8C37.081 8 37.2486 8.06676 37.3878 8.20028C37.5298 8.33381 37.6009 8.49432 37.6009 8.68182C37.6009 8.86932 37.5298 9.02983 37.3878 9.16335C37.2486 9.29688 37.081 9.36364 36.8849 9.36364ZM40.1587 14.6136L40.1417 13.3693H40.3462L43.2099 10.4545H44.4542L41.4031 13.5398H41.3178L40.1587 14.6136ZM39.2212 17V8.27273H40.2269V17H39.2212ZM43.3803 17L40.8235 13.7614L41.5394 13.0625L44.6587 17H43.3803Z" fill="#FBFAFE"/>
</svg>
