<svg width="499" height="134" viewBox="0 0 499 134" fill="none" xmlns="http://www.w3.org/2000/svg">
<path d="M0 34.1197C0 15.2759 15.3436 0 34.2708 0H99.3853C118.312 0 133.656 15.2759 133.656 34.1197V98.947C133.656 117.791 118.312 133.067 99.3853 133.067H34.2708C15.3435 133.067 0 117.791 0 98.947V34.1197Z" fill="url(#paint0_linear_309_1901)"/>
<path d="M24.2014 66.8786C26.5159 60.8103 33.3634 57.6986 39.5161 60.0247C42.678 61.2205 45.0519 63.6236 46.2565 66.5021C46.3911 67.0112 46.5247 67.5212 46.7384 67.9948C47.9073 70.7947 50.1867 73.0983 53.2914 74.2723C59.2713 76.5331 65.9367 73.5516 68.2079 67.5983C68.3607 67.1976 68.5141 66.7946 68.6095 66.3722C68.7181 66.0868 68.727 65.8934 68.8002 65.5292C68.8876 65.3002 68.8936 65.1051 68.981 64.8761C70.4302 60.9045 74.9099 58.9948 78.8773 60.4945C81.4649 61.4728 83.2417 63.7181 83.6632 66.2355C83.7263 66.5866 83.7304 66.9173 83.7937 67.2685C83.7908 67.2773 83.7789 67.3252 83.8305 67.3451C84.1581 71.6607 83.6004 76.2321 81.9195 80.6398C76.0021 96.1541 58.5464 103.967 42.9633 98.0761C32.0954 93.9674 25.0015 84.276 23.6927 73.5626C23.5108 72.315 23.4661 71.0537 23.4785 69.8141C23.5978 68.8114 23.8303 67.8516 24.2014 66.8786ZM51.7519 51.7347C57.641 36.2096 75.0808 28.3652 90.6746 34.2284C101.549 38.3177 108.66 47.9948 109.989 58.7052C110.173 59.9525 110.22 61.2141 110.21 62.4537C110.092 63.4569 109.86 64.4186 109.49 65.3925C107.186 71.464 100.348 74.5872 94.1921 72.2731C91.0273 71.0832 88.6482 68.6826 87.4383 65.8057C87.3028 65.2968 87.1678 64.7863 86.953 64.313C85.7788 61.5155 83.4935 59.217 80.3867 58.0488C74.4026 55.7995 67.7435 58.7952 65.4836 64.7528C65.3317 65.1532 65.1799 65.5537 65.0853 65.9756C64.9767 66.262 64.9707 66.4568 64.8979 66.822C64.811 67.0511 64.8008 67.2459 64.7139 67.475C63.2714 71.4486 58.7975 73.3659 54.8275 71.8733C52.2382 70.8997 50.4577 68.659 50.0316 66.1422C49.9677 65.791 49.9617 65.4606 49.8978 65.1093C49.9001 65.1025 49.9146 65.0529 49.861 65.0327C49.5255 60.7175 50.0788 56.1456 51.7519 51.7347Z" fill="url(#paint1_linear_309_1901)"/>
<path d="M456.502 33.9036V76.0267C456.502 84.6565 461.609 90.3009 470.699 90.3009C479.742 90.3009 484.849 84.6565 484.849 76.0267V33.9036H498.999V77.4261C498.999 92.2602 487.988 102.383 470.699 102.383C453.362 102.383 442.352 92.2602 442.352 77.4261V33.9036H456.502Z" fill="black"/>
<path d="M430.874 80.1782H400.091V68.283H430.874V80.1782Z" fill="black"/>
<path d="M341.852 101.216V30.6838H355.299V59.0458H355.58C358.485 52.5617 363.92 49.1098 371.792 49.1098C383.224 49.1098 389.831 56.4802 389.831 68.3754V101.216H376.149V71.2209C376.149 64.5036 372.776 60.4452 366.263 60.4452C359.516 60.4452 355.533 65.1567 355.533 72.0606V101.216H341.852Z" fill="black"/>
<path d="M290.077 64.971C290.077 55.3148 298.604 48.9707 311.677 48.9707C324.421 48.9707 332.902 55.4548 333.089 65.2508H320.438C320.157 61.1925 316.737 58.6268 311.489 58.6268C306.569 58.6268 303.29 60.8193 303.29 64.1313C303.29 66.6969 305.539 68.4229 310.177 69.4958L319.876 71.595C330.231 73.9274 334.354 77.8924 334.354 85.5427C334.354 95.5254 325.124 102.103 311.63 102.103C298.042 102.103 289.514 95.572 288.812 85.6827H302.165C302.821 90.0209 306.335 92.4466 312.005 92.4466C317.44 92.4466 320.766 90.3475 320.766 86.9888C320.766 84.3299 318.986 82.9304 314.3 81.8109L304.789 79.6651C295.09 77.4726 290.077 72.4813 290.077 64.971Z" fill="black"/>
<path d="M256.906 91.8868C263.231 91.8868 268.291 87.9684 268.291 82.3707V78.5922L257.468 79.3385C251.752 79.7117 248.706 81.9508 248.706 85.7293C248.706 89.5078 251.939 91.8868 256.906 91.8868ZM252.454 101.823C242.521 101.823 235.071 95.6187 235.071 86.429C235.071 77.0994 242.24 71.8282 255.406 71.0352L268.291 70.2422V66.8369C268.291 61.8922 264.871 59.1866 259.248 59.1866C254.282 59.1866 250.814 61.7989 250.158 65.5307H237.648C238.023 55.7347 246.925 48.9707 259.811 48.9707C273.07 48.9707 281.738 55.7347 281.738 65.9972V101.216H268.525V93.2863H268.244C265.433 98.6508 259.061 101.823 252.454 101.823Z" fill="black"/>
<path d="M199.926 102.382C180.248 102.382 167.925 89.2737 167.925 67.5357C167.925 45.8444 180.341 32.7363 199.926 32.7363C216.185 32.7363 228.555 42.9989 229.632 58.0662H215.857C214.545 49.8095 208.173 44.3983 199.926 44.3983C189.244 44.3983 182.356 53.3081 182.356 67.4891C182.356 81.8566 189.15 90.7198 199.973 90.7198C208.36 90.7198 214.405 85.8217 215.904 77.8449H229.679C228.086 92.8656 216.513 102.382 199.926 102.382Z" fill="black"/>
<defs>
<linearGradient id="paint0_linear_309_1901" x1="-1.44354e-06" y1="64.5765" x2="133.656" y2="64.5765" gradientUnits="userSpaceOnUse">
<stop stop-color="#6335FC"/>
<stop offset="1" stop-color="#835CE8"/>
</linearGradient>
<linearGradient id="paint1_linear_309_1901" x1="66.8438" y1="32.2839" x2="66.8438" y2="100.04" gradientUnits="userSpaceOnUse">
<stop stop-color="white"/>
<stop offset="1" stop-color="white" stop-opacity="0.6"/>
</linearGradient>
</defs>
</svg>
