<svg width="18" height="18" viewBox="0 0 18 18" fill="none" xmlns="http://www.w3.org/2000/svg">
<g clip-path="url(#clip0_230_815)">
<g opacity="0.5" filter="url(#filter0_i_230_815)">
<path d="M17.8804 7.5864L16.086 3.99624C16.0199 3.8641 15.9284 3.74627 15.8168 3.64949C15.7051 3.55271 15.5755 3.47887 15.4353 3.43219C15.2951 3.3855 15.1471 3.36689 14.9998 3.37741C14.8524 3.38793 14.7085 3.42738 14.5764 3.49351L13.1655 4.19867C12.9478 4.30747 12.6979 4.33315 12.4627 4.27091L9.14405 3.39296C9.04953 3.36836 8.95029 3.36836 8.85577 3.39296L5.53715 4.27091C5.30189 4.33315 5.052 4.30747 4.83432 4.19867L3.42342 3.49351C3.29129 3.42738 3.14743 3.38793 3.00005 3.37741C2.85268 3.36689 2.70467 3.3855 2.56449 3.43219C2.4243 3.47887 2.29469 3.55271 2.18305 3.64949C2.0714 3.74627 1.97992 3.8641 1.91381 3.99624L0.119439 7.58569C0.0533148 7.71782 0.0138654 7.86169 0.00334421 8.00906C-0.00717701 8.15644 0.011436 8.30445 0.0581203 8.44463C0.104805 8.58481 0.178646 8.71443 0.275427 8.82607C0.372208 8.93771 0.490033 9.0292 0.622174 9.0953L2.45061 10.0102C2.49721 10.0335 2.54191 10.0604 2.58431 10.0907L6.42225 12.8317C6.47974 12.8726 6.54437 12.9024 6.6128 12.9196L11.1128 14.0446C11.207 14.0682 11.3058 14.0671 11.3994 14.0412C11.4931 14.0153 11.5784 13.9656 11.6472 13.8969L14.4597 11.0844L15.4052 10.1389C15.4812 10.0629 15.569 9.99963 15.6651 9.95156L17.3776 9.0953C17.6443 8.9618 17.8471 8.72787 17.9414 8.44492C18.0356 8.16197 18.0137 7.85317 17.8804 7.5864ZM14.2881 9.66473C14.1361 9.81722 13.8936 9.83076 13.7255 9.69614L11.6015 7.99491C11.4931 7.90811 11.3564 7.86447 11.2178 7.87239C11.0791 7.8803 10.9483 7.93922 10.8505 8.0378C10.071 8.823 9.23593 9.05759 8.50179 8.98712C7.85772 8.9253 7.75892 8.1434 8.22304 7.69258L10.0617 5.90666C10.2483 5.72538 10.4983 5.62398 10.7584 5.62398H11.9714C12.3501 5.62398 12.6964 5.83795 12.8658 6.1767L14.3667 9.17806C14.4479 9.34031 14.4162 9.53627 14.2881 9.66473ZM11.4773 12.4754C11.2289 12.7239 10.8683 12.8239 10.5274 12.7386L7.17456 11.9004C7.05286 11.87 6.93797 11.8169 6.83589 11.744L4.22638 9.88024C3.82594 9.59424 3.69309 9.05941 3.91316 8.61927L5.29785 5.84988C5.42622 5.59316 5.6587 5.40397 5.93615 5.33045L8.91027 4.54241C8.96902 4.52685 9.0308 4.52683 9.08956 4.54236C9.35313 4.61201 9.43971 4.94272 9.2441 5.1326L6.52491 7.77202L6.51928 7.77835C6.40018 7.89745 6.30934 8.04178 6.25347 8.20069C6.1976 8.35959 6.17812 8.52901 6.19648 8.69645C6.21483 8.86389 6.27055 9.02506 6.35953 9.16809C6.4485 9.31111 6.56845 9.43233 6.71053 9.5228C7.93001 10.3016 9.36214 10.3168 10.6051 9.62724C11.0185 9.3979 11.5383 9.3831 11.9068 9.67913L12.3496 10.0348C12.8136 10.4075 12.8514 11.1004 12.4307 11.5213L11.4773 12.4754ZM9.2685 15.3229C9.23811 15.4445 9.168 15.5524 9.06928 15.6296C8.97056 15.7068 8.8489 15.7488 8.72358 15.749C8.67736 15.7489 8.63132 15.7432 8.58647 15.7321L5.65374 14.9987C5.58521 14.9818 5.52054 14.952 5.46319 14.9109L3.61045 13.5876C3.49654 13.4981 3.42151 13.3682 3.401 13.2248C3.38049 13.0814 3.41607 12.9357 3.50034 12.8179C3.58461 12.7001 3.71107 12.6193 3.85339 12.5924C3.99571 12.5655 4.14292 12.5946 4.26436 12.6735L5.87517 13.8244C5.97741 13.8974 6.09251 13.9505 6.21442 13.9809L8.85928 14.6409C9.00398 14.677 9.12838 14.7692 9.20512 14.8971C9.28186 15.025 9.30466 15.1782 9.2685 15.3229Z" fill="white"/>
</g>
</g>
<defs>
<filter id="filter0_i_230_815" x="0.000488281" y="3.37451" width="17.9985" height="16.3745" filterUnits="userSpaceOnUse" color-interpolation-filters="sRGB">
<feFlood flood-opacity="0" result="BackgroundImageFix"/>
<feBlend mode="normal" in="SourceGraphic" in2="BackgroundImageFix" result="shape"/>
<feColorMatrix in="SourceAlpha" type="matrix" values="0 0 0 0 0 0 0 0 0 0 0 0 0 0 0 0 0 0 127 0" result="hardAlpha"/>
<feOffset dy="4"/>
<feGaussianBlur stdDeviation="2"/>
<feComposite in2="hardAlpha" operator="arithmetic" k2="-1" k3="1"/>
<feColorMatrix type="matrix" values="0 0 0 0 1 0 0 0 0 1 0 0 0 0 1 0 0 0 0.25 0"/>
<feBlend mode="normal" in2="shape" result="effect1_innerShadow_230_815"/>
</filter>
<clipPath id="clip0_230_815">
<rect width="18" height="18" fill="white" transform="translate(0 -0.000976562)"/>
</clipPath>
</defs>
</svg>
