<svg width="19" height="18" viewBox="0 0 19 18" fill="none" xmlns="http://www.w3.org/2000/svg">
<g clip-path="url(#clip0_173_308)">
<g opacity="0.5" filter="url(#filter0_i_173_308)">
<path d="M15.5349 8.82128C15.5355 8.82128 15.5357 8.82192 15.5354 8.82231L7.66133 17.2588C7.57788 17.3478 7.46772 17.4073 7.34749 17.4283C7.22725 17.4493 7.10346 17.4306 6.99479 17.375C6.88612 17.3194 6.79847 17.23 6.74507 17.1203C6.69167 17.0105 6.67541 16.8864 6.69875 16.7666L7.56291 12.444C7.65899 11.9635 7.39264 11.4841 6.93385 11.3118L3.67742 10.089C3.5904 10.0565 3.51279 10.0029 3.45154 9.933C3.39029 9.86314 3.34729 9.77919 3.3264 9.68865C3.30551 9.59812 3.30737 9.50382 3.33181 9.41418C3.35626 9.32454 3.40253 9.24235 3.46649 9.17496L11.3415 0.737456C11.4249 0.648395 11.5351 0.588893 11.6553 0.56793C11.7756 0.546967 11.8994 0.56568 12.008 0.621244C12.1167 0.676809 12.2043 0.766211 12.2577 0.875959C12.3111 0.985706 12.3274 1.10985 12.3041 1.22964L11.4375 5.55725C11.3412 6.03807 11.6078 6.51776 12.0669 6.68993L15.3226 7.91074C15.409 7.94351 15.4859 7.99705 15.5467 8.06664C15.6075 8.13622 15.6502 8.21971 15.6711 8.30972C15.6919 8.39972 15.6903 8.49348 15.6663 8.5827C15.6424 8.67147 15.5972 8.75303 15.5345 8.82025C15.5341 8.82065 15.5344 8.82128 15.5349 8.82128Z" fill="white"/>
</g>
</g>
<defs>
<filter id="filter0_i_173_308" x="3.312" y="0.55957" width="12.3736" height="20.877" filterUnits="userSpaceOnUse" color-interpolation-filters="sRGB">
<feFlood flood-opacity="0" result="BackgroundImageFix"/>
<feBlend mode="normal" in="SourceGraphic" in2="BackgroundImageFix" result="shape"/>
<feColorMatrix in="SourceAlpha" type="matrix" values="0 0 0 0 0 0 0 0 0 0 0 0 0 0 0 0 0 0 127 0" result="hardAlpha"/>
<feOffset dy="4"/>
<feGaussianBlur stdDeviation="2"/>
<feComposite in2="hardAlpha" operator="arithmetic" k2="-1" k3="1"/>
<feColorMatrix type="matrix" values="0 0 0 0 1 0 0 0 0 1 0 0 0 0 1 0 0 0 0.25 0"/>
<feBlend mode="normal" in2="shape" result="effect1_innerShadow_173_308"/>
</filter>
<clipPath id="clip0_173_308">
<rect width="18" height="18" fill="white" transform="translate(0.5)"/>
</clipPath>
</defs>
</svg>
