<svg width="105" height="29" viewBox="0 0 105 29" fill="none" xmlns="http://www.w3.org/2000/svg">
<path d="M0 7.67949C0 3.71437 3.2286 0.5 7.21129 0.5H20.9127C24.8954 0.5 28.124 3.71437 28.124 7.67949V21.3205C28.124 25.2856 24.8954 28.5 20.9127 28.5H7.21129C3.2286 28.5 0 25.2856 0 21.3205V7.67949Z" fill="url(#paint0_linear_127_530)"/>
<path d="M5.09252 14.5727C5.57955 13.2957 7.0204 12.641 8.31506 13.1304C8.98038 13.3821 9.47991 13.8877 9.73338 14.4934C9.76169 14.6006 9.7898 14.7079 9.83478 14.8075C10.0807 15.3967 10.5604 15.8814 11.2137 16.1284C12.472 16.6042 13.8745 15.9768 14.3524 14.7241C14.3846 14.6398 14.4168 14.555 14.4369 14.4661C14.4598 14.406 14.4616 14.3654 14.477 14.2887C14.4954 14.2405 14.4967 14.1995 14.5151 14.1513C14.82 13.3156 15.7626 12.9137 16.5975 13.2293C17.142 13.4352 17.5158 13.9076 17.6045 14.4373C17.6178 14.5112 17.6187 14.5808 17.632 14.6547C17.6314 14.6565 17.6289 14.6666 17.6397 14.6708C17.7087 15.5789 17.5913 16.5408 17.2376 17.4683C15.9925 20.7328 12.3194 22.3769 9.04042 21.1373C6.75358 20.2727 5.26088 18.2334 4.98548 15.9791C4.9472 15.7166 4.93781 15.4512 4.94041 15.1903C4.96551 14.9794 5.01445 14.7774 5.09252 14.5727ZM10.8897 11.3861C12.1289 8.11925 15.7986 6.46864 19.0799 7.70236C21.3681 8.56285 22.8644 10.5991 23.144 12.8528C23.1827 13.1153 23.1926 13.3807 23.1905 13.6416C23.1657 13.8526 23.1168 14.055 23.039 14.26C22.5543 15.5375 21.1154 16.1947 19.82 15.7078C19.1541 15.4574 18.6535 14.9523 18.3989 14.3469C18.3704 14.2398 18.342 14.1324 18.2968 14.0328C18.0497 13.4442 17.5688 12.9605 16.9151 12.7147C15.6559 12.2414 14.2547 12.8717 13.7792 14.1253C13.7472 14.2096 13.7152 14.2939 13.6954 14.3827C13.6725 14.4429 13.6712 14.4839 13.6559 14.5607C13.6376 14.609 13.6355 14.6499 13.6172 14.6982C13.3137 15.5343 12.3723 15.9377 11.5369 15.6236C10.992 15.4188 10.6174 14.9473 10.5277 14.4177C10.5143 14.3438 10.513 14.2743 10.4996 14.2004C10.5001 14.1989 10.5031 14.1885 10.4918 14.1842C10.4212 13.2762 10.5377 12.3142 10.8897 11.3861Z" fill="url(#paint1_linear_127_530)"/>
<path d="M96.0576 7.63403V16.4976C96.0576 18.3135 97.1323 19.5012 99.0449 19.5012C100.948 19.5012 102.022 18.3135 102.022 16.4976V7.63403H105V16.7921C105 19.9135 102.683 22.0435 99.0449 22.0435C95.397 22.0435 93.0801 19.9135 93.0801 16.7921V7.63403H96.0576Z" fill="black"/>
<path d="M90.6649 17.3712H84.1874V14.8682H90.6649V17.3712Z" fill="black"/>
<path d="M71.9324 21.7979V6.95654H74.762V12.9245H74.8211C75.4324 11.5601 76.576 10.8337 78.2324 10.8337C80.638 10.8337 82.0282 12.3846 82.0282 14.8876V21.7979H79.1493V15.4864C79.1493 14.0729 78.4394 13.219 77.069 13.219C75.6493 13.219 74.8113 14.2103 74.8113 15.6631V21.7979H71.9324Z" fill="black"/>
<path d="M61.0382 14.1712C61.0382 12.1394 62.8325 10.8044 65.5833 10.8044C68.265 10.8044 70.0495 12.1688 70.0889 14.2301H67.4269C67.3678 13.3762 66.648 12.8363 65.5438 12.8363C64.5086 12.8363 63.8185 13.2976 63.8185 13.9945C63.8185 14.5344 64.2917 14.8976 65.2678 15.1234L67.3086 15.5651C69.4875 16.0558 70.3551 16.8902 70.3551 18.5C70.3551 20.6005 68.4128 21.9845 65.5734 21.9845C62.7142 21.9845 60.9199 20.6103 60.772 18.5294H63.5818C63.7199 19.4423 64.4593 19.9527 65.6523 19.9527C66.7959 19.9527 67.4959 19.511 67.4959 18.8042C67.4959 18.2447 67.1213 17.9503 66.1354 17.7147L64.134 17.2632C62.0931 16.8018 61.0382 15.7516 61.0382 14.1712Z" fill="black"/>
<path d="M54.058 19.8349C55.389 19.8349 56.4538 19.0104 56.4538 17.8325V17.0374L54.1763 17.1945C52.9735 17.273 52.3326 17.7441 52.3326 18.5392C52.3326 19.3343 53.0129 19.8349 54.058 19.8349ZM53.1214 21.9256C51.0312 21.9256 49.4636 20.6201 49.4636 18.6865C49.4636 16.7233 50.9721 15.6141 53.7425 15.4473L56.4538 15.2804V14.5639C56.4538 13.5234 55.7341 12.9541 54.551 12.9541C53.5059 12.9541 52.7763 13.5038 52.6383 14.289H50.0059C50.0848 12.2277 51.958 10.8044 54.6693 10.8044C57.4594 10.8044 59.2834 12.2277 59.2834 14.3872V21.798H56.5031V20.1294H56.4439C55.8524 21.2582 54.5115 21.9256 53.1214 21.9256Z" fill="black"/>
<path d="M42.069 22.0433C37.9281 22.0433 35.3351 19.2851 35.3351 14.7109C35.3351 10.1466 37.9478 7.38843 42.069 7.38843C45.4901 7.38843 48.0929 9.54788 48.3197 12.7184H45.4211C45.145 10.981 43.8042 9.84235 42.069 9.84235C39.8211 9.84235 38.3718 11.7172 38.3718 14.7011C38.3718 17.7244 39.8014 19.5893 42.0788 19.5893C43.8436 19.5893 45.1155 18.5587 45.4309 16.8802H48.3295C47.9943 20.0409 45.5591 22.0433 42.069 22.0433Z" fill="black"/>
<defs>
<linearGradient id="paint0_linear_127_530" x1="-3.03752e-07" y1="14.0882" x2="28.124" y2="14.0882" gradientUnits="userSpaceOnUse">
<stop stop-color="#6335FC"/>
<stop offset="1" stop-color="#835CE8"/>
</linearGradient>
<linearGradient id="paint1_linear_127_530" x1="14.0654" y1="7.29321" x2="14.0654" y2="21.5504" gradientUnits="userSpaceOnUse">
<stop stop-color="white"/>
<stop offset="1" stop-color="white" stop-opacity="0.6"/>
</linearGradient>
</defs>
</svg>
