<svg width="180" height="180" viewBox="0 0 180 180" fill="none" xmlns="http://www.w3.org/2000/svg">
<path d="M0 46.1538C0 20.6638 20.6638 0 46.1539 0L133.846 0C159.336 0 180 20.6638 180 46.1539V133.846C180 159.336 159.336 180 133.846 180H46.1538C20.6638 180 0 159.336 0 133.846L0 46.1538Z" fill="url(#paint0_linear_778_705)"/>
<path d="M32.4039 91.3518C35.521 83.1793 44.7427 78.9887 53.0289 82.1213C57.2871 83.7317 60.4842 86.9681 62.1064 90.8447C62.2876 91.5303 62.4675 92.2171 62.7554 92.855C64.3296 96.6257 67.3993 99.7281 71.5806 101.309C79.634 104.354 88.6105 100.339 91.6692 92.321C91.875 91.7813 92.0817 91.2387 92.2101 90.6697C92.3564 90.2854 92.3683 90.025 92.467 89.5344C92.5846 89.226 92.5927 88.9633 92.7104 88.6549C94.6621 83.3062 100.695 80.7343 106.038 82.754C109.523 84.0715 111.916 87.0953 112.483 90.4857C112.569 90.9586 112.574 91.4039 112.659 91.8768C112.655 91.8887 112.639 91.9533 112.709 91.98C113.15 97.7919 112.399 103.949 110.135 109.884C102.166 130.778 78.6576 141.301 57.6713 133.367C43.035 127.833 33.4814 114.782 31.7188 100.353C31.4738 98.6732 31.4137 96.9746 31.4303 95.3051C31.591 93.9548 31.9042 92.6621 32.4039 91.3518ZM69.5072 70.9568C77.4383 50.0486 100.925 39.4843 121.926 47.3804C136.571 52.8877 146.148 65.9202 147.937 80.3443C148.185 82.0241 148.248 83.7231 148.235 85.3926C148.076 86.7436 147.763 88.0388 147.266 89.3504C144.163 97.5271 134.954 101.733 126.663 98.6168C122.401 97.0142 119.197 93.7813 117.568 89.9068C117.385 89.2214 117.203 88.534 116.914 87.8965C115.333 84.1291 112.255 81.0335 108.071 79.4603C100.012 76.4311 91.0438 80.4655 88.0003 88.4888C87.7958 89.0281 87.5913 89.5674 87.464 90.1357C87.3177 90.5214 87.3096 90.7837 87.2116 91.2755C87.0945 91.5841 87.0807 91.8464 86.9637 92.155C85.0211 97.5063 78.9958 100.088 73.6494 98.0783C70.1621 96.7671 67.7643 93.7494 67.1905 90.3601C67.1045 89.8871 67.0964 89.442 67.0102 88.969C67.0134 88.9598 67.0329 88.8929 66.9607 88.8658C66.5089 83.0543 67.2541 76.8972 69.5072 70.9568Z" fill="url(#paint1_linear_778_705)"/>
<defs>
<linearGradient id="paint0_linear_778_705" x1="-1.94408e-06" y1="87.3529" x2="180" y2="87.3529" gradientUnits="userSpaceOnUse">
<stop stop-color="#6335FC"/>
<stop offset="1" stop-color="#835CE8"/>
</linearGradient>
<linearGradient id="paint1_linear_778_705" x1="89.8321" y1="44.7617" x2="89.8321" y2="136.011" gradientUnits="userSpaceOnUse">
<stop stop-color="white"/>
<stop offset="1" stop-color="white" stop-opacity="0.6"/>
</linearGradient>
</defs>
</svg>
