<svg width="19" height="18" viewBox="0 0 19 18" fill="none" xmlns="http://www.w3.org/2000/svg">
<g clip-path="url(#clip0_230_808)">
<g opacity="0.5" filter="url(#filter0_i_230_808)">
<path d="M12.1564 15.75H15.125C15.4234 15.75 15.7095 15.6315 15.9205 15.4205C16.1315 15.2095 16.25 14.9234 16.25 14.625V11.9777C16.2495 11.8855 16.2264 11.7948 16.1826 11.7136C16.1388 11.6324 16.0757 11.5632 15.9988 11.5122C15.922 11.4611 15.8338 11.4297 15.742 11.4208C15.6502 11.4119 15.5576 11.4257 15.4723 11.4609C15.273 11.5433 15.0594 11.5856 14.8438 11.5854C13.9135 11.5854 13.1562 10.8049 13.1562 9.84656C13.1562 8.8882 13.9135 8.10773 14.8438 8.10773C15.0594 8.10757 15.273 8.14985 15.4723 8.23219C15.558 8.26766 15.6511 8.28139 15.7434 8.27218C15.8357 8.26297 15.9242 8.23109 16.0012 8.17939C16.0781 8.12768 16.1411 8.05775 16.1846 7.97582C16.228 7.89388 16.2504 7.80249 16.25 7.70977V5.0625C16.25 4.76413 16.1315 4.47798 15.9205 4.267C15.7095 4.05603 15.4234 3.9375 15.125 3.9375H12.8601C12.7098 3.9375 12.594 3.80654 12.5938 3.65625C12.5938 2.98492 12.3271 2.34109 11.8524 1.86639C11.3777 1.39168 10.7338 1.125 10.0625 1.125C9.39117 1.125 8.74734 1.39168 8.27264 1.86639C7.79793 2.34109 7.53125 2.98492 7.53125 3.65625C7.53099 3.80654 7.41519 3.9375 7.26489 3.9375H5C4.70163 3.9375 4.41548 4.05603 4.2045 4.267C3.99353 4.47798 3.875 4.76413 3.875 5.0625V7.04614C3.875 7.19644 3.74404 7.31224 3.59375 7.3125C2.92242 7.3125 2.27859 7.57918 1.80389 8.05389C1.32918 8.52859 1.0625 9.17242 1.0625 9.84375C1.0625 10.5151 1.32918 11.1589 1.80389 11.6336C2.27859 12.1083 2.92242 12.375 3.59375 12.375C3.74404 12.3753 3.875 12.4911 3.875 12.6414V14.625C3.875 14.9234 3.99353 15.2095 4.2045 15.4205C4.41548 15.6315 4.70163 15.75 5 15.75H7.96859" fill="white"/>
</g>
</g>
<defs>
<filter id="filter0_i_230_808" x="1.0625" y="1.125" width="15.1875" height="18.625" filterUnits="userSpaceOnUse" color-interpolation-filters="sRGB">
<feFlood flood-opacity="0" result="BackgroundImageFix"/>
<feBlend mode="normal" in="SourceGraphic" in2="BackgroundImageFix" result="shape"/>
<feColorMatrix in="SourceAlpha" type="matrix" values="0 0 0 0 0 0 0 0 0 0 0 0 0 0 0 0 0 0 127 0" result="hardAlpha"/>
<feOffset dy="4"/>
<feGaussianBlur stdDeviation="2"/>
<feComposite in2="hardAlpha" operator="arithmetic" k2="-1" k3="1"/>
<feColorMatrix type="matrix" values="0 0 0 0 1 0 0 0 0 1 0 0 0 0 1 0 0 0 0.25 0"/>
<feBlend mode="normal" in2="shape" result="effect1_innerShadow_230_808"/>
</filter>
<clipPath id="clip0_230_808">
<rect width="18" height="18" fill="white" transform="translate(0.5)"/>
</clipPath>
</defs>
</svg>
