<svg width="19" height="18" viewBox="0 0 19 18" fill="none" xmlns="http://www.w3.org/2000/svg">
<g clip-path="url(#clip0_230_794)">
<g opacity="0.5" filter="url(#filter0_i_230_794)">
<path d="M9.5 1.6875C8.05373 1.6875 6.63993 2.11637 5.4374 2.91988C4.23486 3.72339 3.2976 4.86544 2.74413 6.20163C2.19067 7.53781 2.04586 9.00811 2.32801 10.4266C2.61017 11.8451 3.30661 13.148 4.32928 14.1707C5.35196 15.1934 6.65492 15.8898 8.07341 16.172C9.49189 16.4541 10.9622 16.3093 12.2984 15.7559C13.6346 15.2024 14.7766 14.2651 15.5801 13.0626C16.3836 11.8601 16.8125 10.4463 16.8125 9C16.8105 7.06123 16.0394 5.20246 14.6685 3.83154C13.2975 2.46063 11.4388 1.68955 9.5 1.6875ZM9.5 13.5C9.33313 13.5 9.16999 13.4505 9.03124 13.3578C8.89249 13.2651 8.78434 13.1333 8.72048 12.9791C8.65662 12.825 8.63991 12.6553 8.67247 12.4916C8.70502 12.328 8.78538 12.1776 8.90338 12.0596C9.02138 11.9416 9.17172 11.8613 9.3354 11.8287C9.49907 11.7962 9.66872 11.8129 9.82289 11.8767C9.97707 11.9406 10.1088 12.0487 10.2016 12.1875C10.2943 12.3262 10.3438 12.4894 10.3438 12.6562C10.3438 12.88 10.2549 13.0946 10.0966 13.2529C9.93839 13.4111 9.72378 13.5 9.5 13.5ZM10.1123 10.0648C10.0836 10.0706 10.0625 10.0957 10.0625 10.125C10.0625 10.2742 10.0032 10.4173 9.89775 10.5227C9.79226 10.6282 9.64919 10.6875 9.5 10.6875C9.35082 10.6875 9.20775 10.6282 9.10226 10.5227C8.99677 10.4173 8.9375 10.2742 8.9375 10.125V9.5625C8.9375 9.41332 8.99677 9.27024 9.10226 9.16475C9.20775 9.05926 9.35082 9 9.5 9C10.4302 9 11.1875 8.36719 11.1875 7.59375C11.1875 6.82031 10.4302 6.1875 9.5 6.1875C8.56977 6.1875 7.8125 6.82031 7.8125 7.59375V7.875C7.8125 8.02418 7.75324 8.16726 7.64775 8.27275C7.54226 8.37824 7.39919 8.4375 7.25 8.4375C7.10082 8.4375 6.95775 8.37824 6.85226 8.27275C6.74677 8.16726 6.6875 8.02418 6.6875 7.875V7.59375C6.6875 6.19805 7.94891 5.0625 9.5 5.0625C11.0511 5.0625 12.3125 6.19805 12.3125 7.59375C12.3125 8.7999 11.37 9.81221 10.1123 10.0648Z" fill="white"/>
</g>
</g>
<defs>
<filter id="filter0_i_230_794" x="2.1875" y="1.6875" width="14.625" height="18.625" filterUnits="userSpaceOnUse" color-interpolation-filters="sRGB">
<feFlood flood-opacity="0" result="BackgroundImageFix"/>
<feBlend mode="normal" in="SourceGraphic" in2="BackgroundImageFix" result="shape"/>
<feColorMatrix in="SourceAlpha" type="matrix" values="0 0 0 0 0 0 0 0 0 0 0 0 0 0 0 0 0 0 127 0" result="hardAlpha"/>
<feOffset dy="4"/>
<feGaussianBlur stdDeviation="2"/>
<feComposite in2="hardAlpha" operator="arithmetic" k2="-1" k3="1"/>
<feColorMatrix type="matrix" values="0 0 0 0 1 0 0 0 0 1 0 0 0 0 1 0 0 0 0.25 0"/>
<feBlend mode="normal" in2="shape" result="effect1_innerShadow_230_794"/>
</filter>
<clipPath id="clip0_230_794">
<rect width="18" height="18" fill="white" transform="translate(0.5)"/>
</clipPath>
</defs>
</svg>
