<svg width="18" height="18" viewBox="0 0 18 18" fill="none" xmlns="http://www.w3.org/2000/svg">
<g clip-path="url(#clip0_227_543)">
<g opacity="0.5" filter="url(#filter0_i_227_543)">
<path d="M7.16112 13.4396C6.84401 14.1328 5.78581 15.75 2.8123 15.75C2.66311 15.75 2.52004 15.6908 2.41455 15.5853C2.30906 15.4798 2.2498 15.3367 2.2498 15.1875C2.2498 12.214 3.86698 11.1558 4.56026 10.8387C4.62748 10.8081 4.70008 10.7909 4.77392 10.7883C4.84775 10.7857 4.92138 10.7977 4.99059 10.8236C5.05979 10.8494 5.12323 10.8887 5.17728 10.939C5.23133 10.9894 5.27492 11.0499 5.30558 11.1171C5.33623 11.1844 5.35335 11.257 5.35595 11.3308C5.35854 11.4046 5.34657 11.4783 5.32072 11.5475C5.29486 11.6167 5.25563 11.6801 5.20526 11.7342C5.15488 11.7882 5.09436 11.8318 5.02714 11.8625C4.6869 12.0175 4.03764 12.4314 3.66225 13.4224C3.4401 14.0088 3.99101 14.5597 4.5775 14.3376C5.56893 13.9623 5.98338 13.313 6.13737 12.9727C6.16803 12.9055 6.21162 12.8449 6.26567 12.7946C6.31972 12.7442 6.38315 12.705 6.45236 12.6791C6.52157 12.6533 6.5952 12.6413 6.66903 12.6439C6.74287 12.6465 6.81547 12.6636 6.88269 12.6943C6.94991 12.7249 7.01043 12.7685 7.0608 12.8226C7.11118 12.8766 7.15041 12.94 7.17626 13.0092C7.20212 13.0785 7.21409 13.1521 7.21149 13.2259C7.20889 13.2997 7.19178 13.3723 7.16112 13.4396ZM15.7392 3.31457C15.7226 3.0403 15.6061 2.78161 15.4118 2.58731C15.2175 2.39302 14.9588 2.27655 14.6846 2.25988C13.8 2.20714 11.5395 2.288 9.66425 4.16324L6.18729 7.643C6.13508 7.69531 6.07307 7.73682 6.00481 7.76517C5.93655 7.79351 5.86338 7.80813 5.78947 7.8082C5.6402 7.80833 5.497 7.74916 5.39136 7.64371C5.28572 7.53825 5.22629 7.39515 5.22616 7.24588C5.22603 7.09662 5.2852 6.95341 5.39065 6.84777L7.25815 4.97957C7.29725 4.94024 7.32385 4.89023 7.3346 4.83583C7.34536 4.78143 7.33979 4.72506 7.3186 4.67381C7.29741 4.62257 7.26154 4.57873 7.21551 4.54781C7.16948 4.51689 7.11533 4.50027 7.05987 4.50004H5.22753C5.07934 4.49925 4.93247 4.52794 4.79547 4.58443C4.65846 4.64093 4.53406 4.72409 4.42948 4.8291L2.01776 7.24222C1.86986 7.39003 1.76607 7.57612 1.71806 7.77963C1.67004 7.98314 1.67968 8.196 1.74592 8.39433C1.81215 8.59266 1.93234 8.76861 2.09301 8.90243C2.25368 9.03625 2.44846 9.12264 2.6555 9.15191L5.02852 9.48316C5.2439 9.51322 5.44361 9.61268 5.59738 9.76645L8.23195 12.401C8.38574 12.5548 8.48519 12.7545 8.51525 12.9699L8.84651 15.3443C8.87555 15.5514 8.96192 15.7462 9.09586 15.9067C9.22981 16.0672 9.40598 16.1871 9.60448 16.2528C9.7201 16.2914 9.84118 16.3111 9.96308 16.3111C10.1107 16.3114 10.2569 16.2825 10.3932 16.226C10.5296 16.1695 10.6534 16.0866 10.7576 15.9821L13.1707 13.5703C13.2754 13.4655 13.3584 13.3411 13.4149 13.2041C13.4713 13.0672 13.5002 12.9204 13.4998 12.7723V10.94C13.4997 10.8844 13.4831 10.83 13.4522 10.7839C13.4212 10.7377 13.3773 10.7017 13.3259 10.6805C13.2745 10.6593 13.218 10.6537 13.1634 10.6646C13.1089 10.6755 13.0589 10.7023 13.0196 10.7417L11.1514 12.6092C11.0967 12.6639 11.0314 12.7067 10.9595 12.735C10.8875 12.7634 10.8105 12.7765 10.7332 12.7738C10.656 12.771 10.5801 12.7523 10.5104 12.7189C10.4407 12.6855 10.3786 12.6381 10.328 12.5796C10.2357 12.468 10.1888 12.3258 10.1967 12.1812C10.2045 12.0366 10.2664 11.9002 10.3702 11.7992L13.8345 8.33488C15.7111 6.45894 15.792 4.19839 15.7392 3.31316V3.31457Z" fill="white"/>
</g>
</g>
<defs>
<filter id="filter0_i_227_543" x="1.68799" y="2.24951" width="14.0615" height="18.0615" filterUnits="userSpaceOnUse" color-interpolation-filters="sRGB">
<feFlood flood-opacity="0" result="BackgroundImageFix"/>
<feBlend mode="normal" in="SourceGraphic" in2="BackgroundImageFix" result="shape"/>
<feColorMatrix in="SourceAlpha" type="matrix" values="0 0 0 0 0 0 0 0 0 0 0 0 0 0 0 0 0 0 127 0" result="hardAlpha"/>
<feOffset dy="4"/>
<feGaussianBlur stdDeviation="2"/>
<feComposite in2="hardAlpha" operator="arithmetic" k2="-1" k3="1"/>
<feColorMatrix type="matrix" values="0 0 0 0 1 0 0 0 0 1 0 0 0 0 1 0 0 0 0.25 0"/>
<feBlend mode="normal" in2="shape" result="effect1_innerShadow_227_543"/>
</filter>
<clipPath id="clip0_227_543">
<rect width="18" height="18" fill="white"/>
</clipPath>
</defs>
</svg>
