<svg width="18" height="18" viewBox="0 0 18 18" fill="none" xmlns="http://www.w3.org/2000/svg">
<g clip-path="url(#clip0_183_522)">
<g opacity="0.5" filter="url(#filter0_i_183_522)">
<path d="M14.625 2.8125H3.375C3.07663 2.8125 2.79048 2.93103 2.5795 3.142C2.36853 3.35298 2.25 3.63913 2.25 3.9375V7.875C2.25 11.5819 4.04438 13.8284 5.54977 15.0602C7.17117 16.3863 8.78414 16.8363 8.85445 16.8553C8.95113 16.8816 9.05309 16.8816 9.14977 16.8553C9.22008 16.8363 10.8309 16.3863 12.4545 15.0602C13.9556 13.8284 15.75 11.5819 15.75 7.875V3.9375C15.75 3.63913 15.6315 3.35298 15.4205 3.142C15.2095 2.93103 14.9234 2.8125 14.625 2.8125ZM12.2112 7.71047C12.2114 7.71047 12.2116 7.71078 12.2114 7.71097L8.27437 11.648C8.22213 11.7003 8.1601 11.7418 8.09181 11.7701C8.02352 11.7984 7.95033 11.8129 7.87641 11.8129C7.80248 11.8129 7.72929 11.7984 7.661 11.7701C7.59272 11.7418 7.53068 11.7003 7.47844 11.648L5.79094 9.96047C5.68539 9.85492 5.62609 9.71177 5.62609 9.5625C5.62609 9.41323 5.68539 9.27008 5.79094 9.16453C5.89649 9.05898 6.03964 8.99969 6.18891 8.99969C6.33817 8.99969 6.48133 9.05898 6.58687 9.16453L7.16782 9.74643C7.55828 10.1375 8.19195 10.1378 8.58269 9.74694L11.4145 6.91453C11.4668 6.86227 11.5288 6.82081 11.5971 6.79253C11.6654 6.76424 11.7386 6.74969 11.8125 6.74969C11.8864 6.74969 11.9596 6.76424 12.0279 6.79253C12.0962 6.82081 12.1582 6.86227 12.2105 6.91453C12.2627 6.96679 12.3042 7.02884 12.3325 7.09712C12.3608 7.1654 12.3753 7.23859 12.3753 7.3125C12.3753 7.38641 12.3608 7.4596 12.3325 7.52788C12.3043 7.59595 12.263 7.65781 12.211 7.70997C12.2108 7.71016 12.2109 7.71047 12.2112 7.71047Z" fill="white"/>
</g>
</g>
<defs>
<filter id="filter0_i_183_522" x="2.25" y="2.8125" width="13.5" height="18.0625" filterUnits="userSpaceOnUse" color-interpolation-filters="sRGB">
<feFlood flood-opacity="0" result="BackgroundImageFix"/>
<feBlend mode="normal" in="SourceGraphic" in2="BackgroundImageFix" result="shape"/>
<feColorMatrix in="SourceAlpha" type="matrix" values="0 0 0 0 0 0 0 0 0 0 0 0 0 0 0 0 0 0 127 0" result="hardAlpha"/>
<feOffset dy="4"/>
<feGaussianBlur stdDeviation="2"/>
<feComposite in2="hardAlpha" operator="arithmetic" k2="-1" k3="1"/>
<feColorMatrix type="matrix" values="0 0 0 0 1 0 0 0 0 1 0 0 0 0 1 0 0 0 0.25 0"/>
<feBlend mode="normal" in2="shape" result="effect1_innerShadow_183_522"/>
</filter>
<clipPath id="clip0_183_522">
<rect width="18" height="18" fill="white"/>
</clipPath>
</defs>
</svg>
