<svg width="19" height="18" viewBox="0 0 19 18" fill="none" xmlns="http://www.w3.org/2000/svg">
<g opacity="0.5" filter="url(#filter0_i_136_1450)">
<path d="M8.48556 1.96866C8.84297 1.19379 9.94425 1.19379 10.3017 1.96866L11.7975 5.21163C11.9432 5.52744 12.2425 5.74488 12.5878 5.78583L16.1343 6.20632C16.9817 6.3068 17.322 7.35418 16.6955 7.93355L14.0735 10.3583C13.8182 10.5944 13.7039 10.9463 13.7716 11.2874L14.4676 14.7902C14.6339 15.6272 13.743 16.2745 12.9984 15.8577L9.88205 14.1133C9.57858 13.9435 9.20864 13.9435 8.90517 14.1133L5.78884 15.8577C5.04423 16.2745 4.15327 15.6272 4.31958 14.7902L5.01559 11.2874C5.08337 10.9463 4.96905 10.5944 4.71371 10.3583L2.0917 7.93355C1.4652 7.35418 1.80552 6.3068 2.65292 6.20632L6.1994 5.78583C6.54476 5.74488 6.84405 5.52744 6.98972 5.21163L8.48556 1.96866Z" fill="white"/>
</g>
<defs>
<filter id="filter0_i_136_1450" x="1.76947" y="1.38745" width="15.2483" height="18.6003" filterUnits="userSpaceOnUse" color-interpolation-filters="sRGB">
<feFlood flood-opacity="0" result="BackgroundImageFix"/>
<feBlend mode="normal" in="SourceGraphic" in2="BackgroundImageFix" result="shape"/>
<feColorMatrix in="SourceAlpha" type="matrix" values="0 0 0 0 0 0 0 0 0 0 0 0 0 0 0 0 0 0 127 0" result="hardAlpha"/>
<feOffset dy="4"/>
<feGaussianBlur stdDeviation="2"/>
<feComposite in2="hardAlpha" operator="arithmetic" k2="-1" k3="1"/>
<feColorMatrix type="matrix" values="0 0 0 0 1 0 0 0 0 1 0 0 0 0 1 0 0 0 0.25 0"/>
<feBlend mode="normal" in2="shape" result="effect1_innerShadow_136_1450"/>
</filter>
</defs>
</svg>
