<svg width="19" height="19" viewBox="0 0 19 19" fill="none" xmlns="http://www.w3.org/2000/svg">
<g clip-path="url(#clip0_309_1745)">
<path d="M17.129 6.11446V9.03725C17.129 9.19229 17.0674 9.34097 16.9577 9.4506C16.8481 9.56022 16.6994 9.62181 16.5444 9.62181C15.3233 9.62465 14.1197 9.33103 13.037 8.76616V11.6678C13.037 13.1406 12.452 14.5531 11.4105 15.5946C10.3691 16.636 8.95656 17.2211 7.48373 17.2211C6.0109 17.2211 4.59839 16.636 3.55695 15.5946C2.5155 14.5531 1.93042 13.1406 1.93042 11.6678C1.93042 8.97149 3.89673 6.58795 6.50459 6.12323C6.58872 6.10827 6.67511 6.11195 6.75767 6.13399C6.84022 6.15603 6.91694 6.1959 6.98243 6.25079C7.04791 6.30569 7.10056 6.37427 7.13668 6.45171C7.17279 6.52915 7.19149 6.61357 7.19145 6.69902V9.81837C7.19149 9.929 7.16013 10.0374 7.10101 10.1309C7.0419 10.2244 6.95747 10.2992 6.85752 10.3467C6.62124 10.4587 6.41935 10.6321 6.27292 10.8488C6.12649 11.0655 6.04088 11.3174 6.02502 11.5785C6.00916 11.8395 6.06363 12.1 6.18275 12.3328C6.30187 12.5656 6.48127 12.7622 6.70225 12.902C6.92322 13.0418 7.17767 13.1198 7.43906 13.1278C7.70044 13.1358 7.95918 13.0735 8.18829 12.9474C8.41739 12.8214 8.60847 12.6361 8.7416 12.411C8.87472 12.186 8.94501 11.9293 8.94513 11.6678V2.02255C8.94513 1.86751 9.00671 1.71883 9.11634 1.6092C9.22597 1.49958 9.37465 1.43799 9.52969 1.43799H12.4525C12.6075 1.43799 12.7562 1.49958 12.8658 1.6092C12.9755 1.71883 13.037 1.86751 13.037 2.02255C13.038 2.95246 13.4078 3.84401 14.0654 4.50155C14.7229 5.1591 15.6145 5.52893 16.5444 5.5299C16.6994 5.5299 16.8481 5.59149 16.9577 5.70111C17.0674 5.81074 17.129 5.95942 17.129 6.11446Z" fill="#202020"/>
</g>
<defs>
<clipPath id="clip0_309_1745">
<rect width="18.7059" height="18.7059" fill="white" transform="translate(0.176514 0.269043)"/>
</clipPath>
</defs>
</svg>
