<svg width="88" height="69" viewBox="0 0 88 69" fill="none" xmlns="http://www.w3.org/2000/svg">
<path d="M1.20138 34.8786C3.51594 28.8103 10.3634 25.6986 16.5161 28.0247C19.678 29.2205 22.0519 31.6236 23.2565 34.5021C23.3911 35.0112 23.5247 35.5212 23.7384 35.9948C24.9073 38.7947 27.1867 41.0983 30.2914 42.2723C36.2713 44.5331 42.9367 41.5516 45.2079 35.5983C45.3607 35.1976 45.5141 34.7946 45.6095 34.3722C45.7181 34.0868 45.727 33.8934 45.8002 33.5292C45.8876 33.3002 45.8936 33.1051 45.981 32.8761C47.4302 28.9045 51.9099 26.9948 55.8773 28.4945C58.4649 29.4728 60.2417 31.7181 60.6632 34.2355C60.7263 34.5866 60.7304 34.9173 60.7937 35.2685C60.7908 35.2773 60.7789 35.3252 60.8305 35.3451C61.1581 39.6607 60.6004 44.2321 58.9195 48.6398C53.0021 64.1541 35.5464 71.9673 19.9633 66.0761C9.09536 61.9674 2.00151 52.276 0.692669 41.5626C0.510763 40.315 0.466131 39.0537 0.478477 37.8141C0.597805 36.8114 0.830344 35.8516 1.20138 34.8786ZM28.7519 19.7347C34.641 4.2096 52.0808 -3.63476 67.6746 2.22837C78.5491 6.31771 85.6603 15.9948 86.9888 26.7052C87.173 27.9525 87.2197 29.2141 87.2097 30.4537C87.0921 31.4569 86.8595 32.4186 86.4901 33.3925C84.1863 39.464 77.3484 42.5872 71.1921 40.2731C68.0273 39.0832 65.6482 36.6826 64.4383 33.8057C64.3028 33.2968 64.1678 32.7863 63.953 32.313C62.7788 29.5155 60.4935 27.217 57.3867 26.0488C51.4026 23.7995 44.7435 26.7952 42.4836 32.7528C42.3317 33.1532 42.1799 33.5537 42.0853 33.9756C41.9767 34.262 41.9707 34.4568 41.8979 34.822C41.811 35.0511 41.8008 35.2459 41.7139 35.475C40.2714 39.4486 35.7975 41.3659 31.8275 39.8733C29.2382 38.8997 27.4577 36.659 27.0316 34.1422C26.9677 33.791 26.9617 33.4606 26.8978 33.1093C26.9001 33.1025 26.9146 33.0529 26.861 33.0327C26.5255 28.7175 27.0788 24.1456 28.7519 19.7347Z" fill="url(#paint0_linear_2080_3)"/>
<defs>
<linearGradient id="paint0_linear_2080_3" x1="43.8438" y1="0.283936" x2="43.8438" y2="68.0397" gradientUnits="userSpaceOnUse">
<stop stop-color="white"/>
<stop offset="1" stop-color="white" stop-opacity="0.6"/>
</linearGradient>
</defs>
</svg>
